<svg width="378" height="266" viewBox="0 0 378 266" fill="none" xmlns="http://www.w3.org/2000/svg">
<path d="M377.266 59.2921C377.266 58.5925 374.992 57.0184 374.117 56.1438C372.893 56.6685 372.106 57.8054 371.056 58.3301C370.619 57.8054 370.532 57.2807 369.92 56.9309C369.307 57.1933 368.958 57.4556 368.258 57.4556C367.558 57.4556 367.121 57.1932 366.771 57.1932C366.859 58.1552 366.771 58.2427 366.072 58.2427C365.372 58.2427 365.634 57.718 364.935 57.718H361.437C360.737 57.718 359.425 57.9803 358.638 58.3301C358.026 58.7674 358.463 59.6419 357.501 59.6419C356.802 59.6419 356.365 59.1172 355.665 59.1172C354.965 59.1172 354.616 60.254 354.091 60.6913C353.829 60.7787 353.216 60.5164 352.954 60.8662C352.954 62.8776 351.817 64.5392 351.817 65.5886C351.817 66.2882 352.604 67.6874 352.604 68.387C352.604 69.0867 351.817 69.6988 351.292 70.311C352.254 73.5467 348.844 77.482 348.057 80.5428C347.882 81.0675 346.745 81.5922 346.745 82.2044C346.745 82.904 347.182 83.3412 346.92 83.7785C345.958 86.1397 345.958 88.3259 343.947 90.3373C342.897 91.3868 340.973 92.9609 340.973 93.6605C340.973 94.3601 341.498 94.8848 341.498 95.5844C341.498 96.284 341.236 98.208 340.886 99.5197C340.186 100.044 338.787 100.569 338.787 101.269C338.787 101.968 339.312 102.143 339.312 102.755C339.312 103.455 338.874 103.63 338.35 103.892C338.175 103.63 337.65 103.193 337.563 102.755C336.688 104.504 337.125 107.39 335.026 109.664C334.852 109.402 334.589 109.402 334.589 109.402C333.103 108.352 333.627 106.079 333.19 105.029C333.015 104.592 332.141 103.892 331.616 103.455C332.141 102.755 333.277 101.531 333.277 100.832C333.277 100.132 332.403 95.8468 332.403 95.1472C332.403 93.3107 334.065 91.037 334.065 89.6377C334.065 88.9381 332.053 88.151 331.528 87.7138C333.452 86.6644 334.327 84.653 334.327 82.8165C334.327 80.193 332.403 80.98 332.403 76.8698C332.403 76.1702 332.928 75.4706 332.928 74.8584C332.665 74.5086 332.315 74.5086 332.141 74.3337C332.053 73.5467 331.791 72.3223 331.791 71.6227C331.791 70.9231 334.239 67.3376 334.239 66.638V59.9042C334.239 58.505 331.791 54.9195 330.566 54.3074C329.604 53.7826 328.293 53.9575 327.243 53.8701C326.719 53.4328 326.369 52.8207 326.019 52.8207C324.882 53.3454 323.395 55.007 322.696 55.007C321.996 55.007 320.772 54.4822 320.072 54.4822C319.373 54.4822 316.837 56.4062 315.35 57.0184C315.35 57.6305 315.35 58.1552 315.262 58.4176C315.088 58.6799 314.563 59.2046 314.3 59.5544C313.951 60.6913 313.776 61.8282 313.338 62.6152C312.202 64.6266 310.628 66.4631 309.666 67.6874C309.141 68.2996 309.053 71.3604 307.129 71.5353C307.479 71.9725 307.742 72.2349 307.917 72.4098C305.031 74.0714 303.981 77.482 302.145 80.0181H297.247C296.548 80.0181 292.35 78.3565 291.651 78.3565C290.951 78.3565 289.902 79.4934 289.202 79.7557C285.529 76.8698 280.107 78.6189 276.871 76.2577C277.396 75.2083 277.396 73.809 277.658 72.7596C279.058 72.7596 280.282 71.7102 280.894 71.0106C283.605 67.7749 287.89 65.5011 287.453 61.6533C287.89 61.1286 288.677 61.216 289.202 60.8662C289.464 59.0297 291.651 58.0678 292.875 57.3682C293.312 57.1058 294.099 57.3682 294.536 56.9309C296.548 54.9195 298.822 52.9956 300.571 51.2466C301.533 50.1971 301.445 49.1477 302.932 48.1858C302.669 46.6991 301.707 45.0375 299.958 44.6877C299.346 45.2999 299.259 45.8246 298.647 45.8246C297.947 45.8246 297.247 45.0375 296.548 45.0375C295.848 45.0375 295.586 45.5622 294.886 45.5622C294.187 45.5622 293.4 44.5128 292.525 43.9006C291.651 44.7752 290.514 45.0375 289.727 45.3873C288.852 47.9234 285.879 47.3112 283.955 48.0983C281.681 47.4861 280.107 49.9348 278.795 51.9462C277.396 53.9575 275.385 55.4442 273.636 56.756C272.674 57.543 271.274 57.6305 270.4 58.5925C269.7 59.2921 269.088 60.6039 268.388 61.216C267.426 62.0031 265.765 62.178 264.803 62.7901C263.316 63.5772 261.742 65.3262 260.693 66.7254C259.818 67.7749 258.856 71.8851 256.583 70.8357C256.145 71.7102 255.358 71.8851 254.746 72.4972C255.621 74.6835 251.598 76.52 249.849 75.8204C248.974 76.6075 248.1 77.1322 247.313 77.8318C246.001 80.4553 245.389 82.6416 242.59 83.0789C242.24 83.8659 241.453 85.0903 241.453 85.7024C241.453 86.402 243.115 89.0256 243.815 89.0256C244.514 89.0256 244.951 88.5009 247.662 88.7632C248.712 88.8507 250.024 88.6758 250.548 89.9875C249.324 91.824 247.75 94.0103 245.739 94.0103C245.039 94.0103 240.754 92.5236 238.568 92.2613C237.256 92.0864 235.769 92.5236 234.457 92.2613C232.796 91.9989 230.872 91.7366 229.21 91.4742C226.936 90.9495 224.75 90.1625 222.564 89.8126C222.302 89.6377 222.127 89.4628 222.127 89.2879C223.176 88.5009 224.488 87.7138 225.362 86.5769C225.887 85.8773 226.149 85.0903 226.849 84.4781C227.286 84.0408 228.248 84.1283 228.686 83.7785C229.822 81.942 233.495 79.7557 235.332 77.6569C236.644 76.1702 237.693 72.2349 240.491 72.2349C241.191 72.2349 242.765 71.2729 242.153 70.6608C242.678 69.9611 243.377 68.9992 244.339 68.387C245.214 67.7749 247.488 68.0372 247.488 66.7254C247.488 66.0258 246.351 64.8015 245.739 64.0145C244.864 63.6647 243.99 63.6647 243.552 63.5772C242.59 62.178 237.606 61.1286 237.081 61.1286C236.381 61.1286 233.933 64.4517 233.233 64.4517C232.533 64.4517 232.009 63.5772 231.309 63.5772C229.647 63.5772 228.423 66.4631 226.324 66.7254C224.575 69.4364 222.914 71.9725 220.99 74.3337C220.727 74.4212 220.465 74.4212 220.203 74.5086C217.929 76.9573 214.781 79.0561 213.382 81.4173C213.119 81.8546 212.07 82.2918 212.07 82.9914C212.07 84.5655 210.146 84.3032 208.834 85.5275C208.659 85.7024 202.538 93.2232 200.614 93.2232C199.914 93.2232 199.914 92.9609 199.652 92.786C199.652 91.9989 199.389 90.8621 199.389 90.2499C199.389 89.5503 200.526 87.1891 200.526 86.4895C200.526 85.7899 199.127 81.6797 199.127 80.98C199.127 80.2804 200.526 78.5314 201.051 77.6569C200.439 77.0447 200.176 76.7824 200.001 76.52C199.389 74.0714 198.865 69.9612 198.865 69.2616C198.865 69.1741 200.526 66.1133 200.526 65.7635C200.526 63.2274 199.389 62.965 197.29 60.429C196.766 60.3415 196.241 60.4289 196.066 60.254C195.454 59.6419 194.579 58.9423 193.88 58.9423C193.18 58.9423 193.005 59.7293 192.568 59.9917C190.644 61.1286 187.408 62.2654 185.659 62.965C185.047 64.0145 184.61 65.2388 183.91 65.9384C183.211 66.638 182.074 66.7255 181.724 67.3376C181.024 68.6494 180.412 70.1361 179.625 71.4478C179.101 72.4098 178.051 72.4098 178.051 73.4592C178.051 74.1588 178.401 75.1208 177.964 75.558C176.827 76.6949 175.515 78.269 174.291 80.0181C173.679 80.8051 174.553 83.7785 172.367 83.8659C172.017 87.6263 168.344 90.2499 168.344 90.862C168.344 91.5617 168.606 91.9115 168.257 92.4362C167.819 92.6985 167.207 92.9609 166.77 93.3107C165.808 94.1852 165.108 96.1966 164.409 96.284L163.884 95.8468C164.146 94.535 164.846 93.1358 165.196 92.0864C165.458 91.0369 164.933 88.5883 166.158 87.8887C165.72 87.8013 165.633 87.8887 165.633 87.1891C165.633 87.1017 167.295 83.0789 167.295 82.3793C167.295 81.6797 166.158 78.8812 166.158 78.269C166.158 77.3945 166.07 76.7824 167.644 76.8698C168.082 76.0828 168.781 75.0333 169.131 74.1588C169.918 71.7102 170.88 67.5125 170.88 66.8129C170.88 66.1133 170.355 66.5505 170.355 65.8509C170.355 65.1513 171.755 62.6152 171.755 61.9156V57.8054C171.755 57.1058 173.941 51.5089 173.941 50.8093C173.941 50.1097 171.492 48.2732 170.006 47.3987C169.568 47.1363 168.694 47.0489 167.994 47.0489C167.295 47.0489 167.207 48.0108 166.595 48.3606C166.07 48.623 165.196 48.5355 164.671 48.7979C163.884 49.3226 163.184 50.372 162.485 50.372C161.785 50.372 161.96 49.8473 161.26 49.8473C160.561 49.8473 159.424 51.2465 158.637 51.5964C158.287 52.3834 158.025 53.1705 157.5 53.6077C157.238 53.6952 156.713 53.6952 156.363 53.7826C154.089 55.794 152.69 58.8548 151.728 62.3529C151.553 62.6152 151.378 62.5278 151.204 62.5278L150.329 61.6533C148.842 63.4023 147.618 64.9764 146.656 66.4631C146.219 67.2502 146.219 68.2121 145.694 68.9117C144.907 69.8737 143.333 70.7482 142.546 71.9725C141.671 73.4592 141.409 75.2083 140.447 76.6949C140.01 77.482 138.96 77.482 138.436 77.7443C138.086 78.3565 138.086 79.1436 137.823 79.7557C137.211 80.5428 136.424 80.8051 135.9 81.0675C134.85 82.9914 133.101 85.0902 131.265 86.8393L130.827 86.402V85.3526C130.827 84.653 131.614 83.7785 131.789 82.904C132.314 80.8926 132.576 78.269 133.976 76.52C133.801 75.9079 133.713 75.1208 133.888 74.5961C135.375 69.6113 137.124 64.7141 138.348 59.9042C138.785 58.2427 139.835 55.9689 140.622 54.1324C141.671 51.7713 142.371 47.3112 142.371 46.6116C142.371 42.0641 145.432 39.7904 145.432 37.8665C145.432 37.1669 145.432 36.7296 147.093 36.7296C147.793 36.7296 150.416 37.8665 151.116 37.8665C151.816 37.8665 153.915 36.6422 155.051 36.3798C156.363 36.1175 158.724 35.6802 159.424 35.6802C160.124 35.6802 165.283 36.8171 165.895 36.8171C166.595 36.8171 168.082 36.03 168.781 36.03C169.481 36.03 170.88 37.9539 171.58 37.9539C172.279 37.9539 172.979 36.8171 173.591 36.6422C174.116 36.5547 174.99 36.8171 175.602 36.7296C176.39 36.1174 178.139 35.1555 179.8 35.1555C180.5 35.1555 181.986 36.5547 182.686 36.5547C183.386 36.5547 184.085 35.6802 184.785 35.6802C185.484 35.6802 187.846 37.0794 188.545 37.0794C189.245 37.0794 190.207 36.2049 190.906 36.2049C191.606 36.2049 192.131 36.7296 192.83 36.7296C193.53 36.7296 195.804 35.5927 197.116 35.068C199.302 35.3304 199.564 35.068 199.827 35.068C200.351 35.3304 200.789 35.5927 201.488 35.5927C202.188 35.5927 204.112 34.1935 204.811 34.1935C205.511 34.1935 205.598 34.9806 205.861 35.1555C206.998 35.2429 208.047 35.5053 209.184 36.1174H212.594C213.382 35.5053 214.256 35.3304 214.518 35.3304C215.218 35.3304 217.229 36.1175 218.366 36.4673C218.629 36.4673 218.891 36.2049 222.564 36.4673C223.438 35.8551 224.488 34.5433 225.187 34.5433C225.887 34.5433 227.811 36.4673 228.511 36.4673C229.21 36.4673 229.735 35.9425 230.435 35.9425C231.134 35.9425 232.096 36.4673 232.796 36.4673C235.332 36.4673 233.495 34.5433 235.419 34.5433C236.119 34.5433 235.769 34.5433 235.944 34.7182V35.4178L235.419 36.03C235.769 36.3798 235.769 36.7296 235.769 36.7296C236.731 36.1174 237.868 34.8057 238.568 34.8057C239.267 34.8057 240.229 34.8931 241.016 35.1555C241.716 35.4178 242.153 36.2049 242.853 36.2049C243.552 36.2049 248.537 35.068 249.237 35.1555C250.111 35.8551 250.373 35.9425 251.248 35.9425C251.948 35.9425 254.134 35.4178 254.833 35.4178C255.533 35.4178 256.233 35.9425 256.932 35.9425C257.632 35.9425 258.856 34.281 259.556 34.281C260.255 34.281 260.955 34.8057 261.48 34.7182C262.267 34.5433 263.141 34.3684 263.579 34.6308C264.278 34.9806 264.715 35.7676 265.24 35.8551C266.377 36.03 267.776 35.5927 268.826 35.7676C269.788 35.8551 270.4 36.8171 271.099 36.8171C271.799 36.8171 272.499 36.03 273.198 36.03C273.898 36.03 273.81 36.2924 274.16 36.4673C275.559 36.5547 277.309 36.03 278.62 36.3798C279.32 36.5547 279.67 37.4292 280.282 37.6916H283.955C285.092 35.9425 283.955 34.9806 285.791 34.9806C286.491 34.9806 288.065 35.3304 289.027 35.8551C290.076 36.3798 290.164 37.1669 290.776 37.1669C291.476 37.1669 292.7 35.7676 293.4 35.7676C294.099 35.7676 294.799 36.9045 295.498 36.9045C296.198 36.9045 298.384 35.2429 299.084 35.2429C299.784 35.2429 307.567 34.7182 308.266 34.7182C308.966 34.7182 309.84 34.9806 310.453 35.4178C311.065 35.2429 311.589 35.1555 311.764 35.3304C312.639 36.03 313.951 36.6422 314.65 36.6422C315.787 36.6422 318.411 33.9312 318.411 33.1441C318.411 32.4445 317.186 29.9958 316.312 29.2088C315.262 28.3343 313.601 27.9845 312.114 27.4597C311.502 28.3343 311.065 29.4711 310.19 29.5586C305.905 30.2582 301.27 29.7335 296.373 30.2582C295.673 30.3457 295.236 31.3076 294.799 31.57H294.274C294.099 31.1327 293.749 30.5206 293.4 30.2582H289.377C288.502 30.2582 285.704 29.9958 284.305 29.1213C282.905 31.4825 278.97 30.0833 279.058 33.5813C278.97 33.319 278.62 33.319 278.445 33.1441C278.445 32.357 278.708 31.8323 278.708 31.4825L264.191 30.8703C263.316 31.1327 262.442 31.6574 261.742 31.6574C261.043 31.6574 256.932 29.7335 256.233 29.7335C254.746 29.7335 252.56 31.9198 251.685 31.9198C250.986 31.9198 248.362 30.2582 247.662 30.2582C246.963 30.2582 243.902 31.0453 243.202 31.0453C242.503 31.0453 242.066 30.5205 241.366 30.5205C240.666 30.5205 239.267 31.3951 238.218 31.6574C237.343 30.4331 236.644 30.2582 236.469 30.2582C235.769 30.2582 234.632 30.7829 233.933 30.7829C233.233 30.7829 232.971 29.9958 232.271 29.9958C231.571 29.9958 231.047 30.5205 230.347 30.5205C229.647 30.5205 227.199 28.5966 226.499 28.5966C224.75 28.5966 225.625 30.7829 223.613 30.7829C222.914 30.7829 222.127 30.2582 221.514 30.2582C216.792 30.5206 216.53 30.2582 216.18 30.2582C215.568 30.8704 215.305 30.7829 214.606 30.7829C213.906 30.7829 212.944 30.5205 209.621 30.5205C209.359 30.5205 208.659 30.8704 208.484 31.0453C208.047 30.4331 205.249 29.1213 204.287 29.1213C203.587 29.1213 198.865 30.7829 198.165 30.7829C197.465 30.7829 196.328 30.2582 195.716 30.2582C195.017 30.2582 194.842 30.7829 194.579 30.7829C193.443 30.7829 192.306 30.7829 191.519 30.8703C191.431 31.3951 191.256 31.57 190.557 31.57C189.857 31.57 186.534 31.0453 185.834 31.0453C185.135 31.0453 183.735 31.57 183.036 31.57C181.724 31.57 180.762 29.9084 179.538 29.9084C178.838 29.9084 174.378 31.8323 173.766 31.8323C173.066 31.8323 171.93 30.6955 171.23 30.6955C170.53 30.6955 169.306 31.4825 168.431 31.7449C167.382 32.0072 166.158 31.3951 165.371 31.6574C164.496 31.9198 163.884 32.4445 163.184 32.4445C162.485 32.4445 160.561 31.3076 159.861 31.3076C159.162 31.3076 158.375 32.1821 157.675 32.1821C156.975 32.1821 156.276 31.0453 155.576 31.0453C154.876 31.0453 155.314 31.57 154.614 31.57C153.915 31.57 151.816 31.8323 151.116 31.8323C149.455 31.8323 148.055 32.0072 146.131 30.2582C146.656 29.5586 147.705 29.3837 148.23 28.6841C148.842 27.7221 149.629 26.148 149.892 25.0111C150.154 23.9617 150.242 22.7374 150.329 21.9503C150.504 21.688 150.766 21.4256 150.941 21.3381C151.903 19.1519 153.04 17.053 153.74 15.0417C154.439 13.2052 155.139 9.79456 157.063 9.44476C157.5 8.39534 159.424 6.99611 159.424 6.2965C159.424 5.59689 159.162 5.50945 158.987 5.33454C158.549 4.98474 157.85 4.54748 157.5 3.93532C157.063 3.14825 157.15 2.27373 156.8 1.48667C156.013 0.874512 155.226 0.262357 154.614 0.262357C153.915 0.262357 154.352 1.04941 153.652 1.04941C152.953 1.04941 153.565 0.524714 152.778 0.524714C152.078 0.524714 151.116 1.31177 150.416 1.31177C149.717 1.31177 149.892 0.787058 149.192 0.787058C148.493 0.787058 148.667 1.31177 147.968 1.31177C147.268 1.31177 147.531 1.13687 147.531 1.13687C147.531 0.961969 147.793 0.262354 147.443 0H145.956C145.257 0 144.47 1.13687 143.945 1.48667C143.683 1.39922 143.071 1.74903 142.808 1.83649C138.523 2.27374 137.474 9.79457 135.987 12.8554C135.637 13.6424 134.063 14.0797 133.626 15.0417C133.189 16.0036 133.276 17.3154 133.363 18.2773C131.964 17.7526 131.09 19.9389 130.74 20.2013C130.128 20.8134 128.991 21.0758 128.641 21.9503C127.592 24.9237 124.793 31.7449 120.945 31.7449C120.246 31.7449 117.36 30.3457 116.66 30.3457C115.961 30.3457 114.474 30.5206 113.687 30.6955C112.55 31.0453 111.238 32.2696 110.539 32.2696C109.839 32.2696 109.402 31.4825 108.79 30.8703H100.744C100.044 30.8703 98.3829 29.9958 97.6833 29.9958C96.9837 29.9958 90.2499 31.6574 89.5503 31.6574C88.8507 31.6574 85.2652 30.2582 84.5655 30.2582C83.8659 30.2582 81.6796 31.3951 80.98 31.3951C80.2804 31.3951 79.3185 30.608 78.6188 30.608C78.0067 30.608 75.7329 31.7449 73.1094 31.7449C69.2615 31.7449 70.311 29.8209 67.9498 29.8209C67.2502 29.8209 66.9878 30.5205 66.4631 30.5205C65.0639 30.5205 63.6647 30.2582 62.5278 30.4331C61.9156 30.5205 61.1286 30.9578 60.4289 30.9578C59.7293 30.9578 58.0678 29.5586 57.3681 29.5586C55.7066 29.5586 53.2579 29.7335 53.2579 31.7449C53.2579 32.4445 53.2579 32.4445 53.3454 32.7943C54.3948 33.6688 55.2693 34.8931 56.6685 35.5053C58.505 36.2924 62.2654 37.5167 62.965 37.5167C63.6647 37.5167 64.889 34.9806 65.5886 34.9806C66.2882 34.9806 67.7749 37.1669 68.4745 37.1669C69.1741 37.1669 71.6227 36.03 72.3223 36.03C73.022 36.03 75.6455 37.4292 76.3451 37.4292C77.0447 37.4292 77.482 37.0794 78.0067 37.0794C79.4059 37.0794 81.0675 37.2543 82.4667 37.0794C82.9914 36.992 83.5161 36.2049 83.8659 36.1174C84.653 35.9425 85.5275 36.2923 86.402 36.2049C86.6644 36.03 86.7518 35.7676 87.4514 35.7676C88.1511 35.7676 88.326 36.9045 88.9381 36.9045C89.6377 36.9045 89.8126 36.3798 90.4248 36.3798C91.1244 36.3798 92.8734 37.5167 93.573 37.5167C94.2727 37.5167 99.0825 35.8551 99.7821 35.8551C100.482 35.8551 104.242 37.2543 104.942 37.2543C105.641 37.2543 106.516 36.992 107.303 36.9045C107.565 36.7296 107.39 36.2049 108.09 36.2049H111.938C112.637 36.2049 113.337 36.7296 114.037 36.7296C114.736 36.7296 117.185 36.2049 117.885 36.2049C118.584 36.2049 118.759 36.2049 119.021 36.3798V37.0794C117.972 38.1288 116.573 39.8779 115.961 41.1022C115.436 41.452 114.911 41.1896 114.299 41.5394C114.386 42.414 113.949 43.2885 112.987 43.8132C112.9 44.3379 112.987 44.95 112.812 45.4748C112.2 46.9614 111.675 48.623 110.888 49.8473C110.101 51.0716 108.265 51.5089 107.215 52.5583C106.603 53.1705 106.778 54.6571 106.428 55.3568C105.904 56.8434 105.117 58.4176 104.417 59.6419C102.493 58.8548 101.006 62.965 100.394 63.6646C99.5197 64.6266 98.3829 65.4137 98.0331 66.4631C97.5958 67.7749 97.246 69.5239 96.4589 70.8357C96.1091 71.4478 95.497 71.6227 95.3221 71.7102C94.4476 73.1969 94.2726 74.2463 92.5236 74.771C91.6491 76.2577 91.7366 78.7937 89.3754 78.6188C88.5009 82.0295 84.1283 85.3526 84.4781 88.6758C83.2538 89.4628 81.4173 90.6871 80.8051 92.2613C80.0181 94.2727 78.7063 96.8088 77.2196 99.3448C75.6455 99.0825 73.9839 98.8201 72.5847 98.6452C72.06 98.5578 71.4478 97.5958 70.7482 97.5958C70.0486 97.5958 69.349 98.1205 68.6494 98.1205C67.9498 98.1205 65.8509 96.7213 65.1513 96.7213C64.4517 96.7213 63.4023 97.246 62.5278 97.246C50.4595 97.246 57.0183 97.5084 54.2199 97.5084C53.5203 97.5084 53.2579 96.7213 52.8207 96.1966C50.8967 96.1091 48.7105 96.5464 46.7865 96.0217C46.2618 95.8468 45.3873 94.4476 44.4253 94.4476C43.7257 94.4476 43.9006 94.9723 43.201 94.9723C42.5014 94.9723 39.8779 94.7099 38.6535 94.4476C38.9159 93.748 39.1782 93.2232 39.4406 92.786C42.1516 93.4856 43.9881 90.4248 47.2238 88.5883C47.7485 88.3259 48.7105 88.5883 49.1477 88.4134C51.334 87.4515 53.6952 86.6644 55.7066 86.2271C59.7293 82.9914 64.8015 80.5428 68.5619 79.5808C69.4364 79.4059 70.2235 78.0067 71.0106 77.5694C71.7976 76.2577 76.52 73.2843 77.8318 73.2843C78.5314 73.2843 79.231 73.809 79.9306 73.809C80.5428 73.809 81.7671 71.5353 82.4667 70.8357C83.2538 70.7482 84.1283 70.7482 84.9153 70.4859C85.3526 69.349 86.1397 67.8623 86.1397 67.1627C86.1397 64.1894 84.1283 65.8509 83.3412 61.3909C82.1169 61.3909 80.3679 60.7788 79.6683 60.7788C77.9192 60.7788 77.482 61.7407 75.7329 62.7027H71.8851C71.1855 62.7027 71.7102 62.178 71.0106 62.178C70.311 62.178 68.9992 63.5772 68.2121 64.0145C67.6874 64.1019 67.1627 63.8396 66.5505 63.927C64.7141 65.7635 62.6152 68.2121 59.9042 69.2616C58.8548 69.6988 57.2807 69.6113 56.3187 70.311C54.9195 71.3604 53.3454 73.6341 51.8587 74.2463C51.4214 74.4212 50.8093 74.0714 50.1971 74.1588C49.2352 74.3337 48.623 75.733 47.9234 76.2577C46.4367 77.3945 44.6002 77.7443 42.9387 78.444C42.1516 78.7938 41.1896 79.1436 40.7524 79.7557C40.6649 80.0181 40.4026 80.6302 40.3151 80.8051C38.0414 82.7291 34.281 82.4667 31.9198 83.3412C29.9958 84.0408 27.897 85.615 26.0605 86.6644C24.4864 87.5389 22.8248 88.5883 20.5511 88.8507C19.4142 90.3373 15.3915 90.9495 14.9542 90.9495C14.2546 90.9495 14.5169 90.4248 13.8173 90.4248C13.1177 90.4248 11.9809 91.9989 11.1063 92.5236C9.26986 93.6605 7.34592 94.7974 5.33454 95.5844C4.54747 95.8468 3.41061 95.6719 2.53609 96.0217C1.66158 97.3334 0 99.5198 0 100.219C0 100.919 1.32919e-06 102.581 0.349807 103.63C0.787064 104.854 2.27374 105.292 3.14825 106.516C3.76041 106.516 4.63493 105.991 5.24709 105.991C5.9467 105.991 6.73376 106.341 7.60828 106.516C8.13299 106.603 9.0075 105.991 11.8059 106.254C15.4789 106.603 18.8895 107.74 22.5625 108.09C24.399 108.265 24.7488 108.702 25.4484 108.702C26.148 108.702 28.9464 107.565 29.646 107.565C30.3457 107.565 32.7068 108.352 34.4559 108.702C34.9806 108.79 35.5927 108.615 35.8551 108.702C36.3798 108.877 36.7296 109.489 37.4292 109.489C38.1288 109.489 40.2277 108.09 40.9273 108.09C41.6269 108.09 49.6724 109.752 50.372 109.752C51.0716 109.752 53.2579 109.227 53.9575 109.227C54.6572 109.227 58.0678 109.839 60.0791 109.926C61.7407 110.014 63.6647 109.752 65.3262 110.101C66.1133 110.276 66.9878 111.151 67.5125 111.326C68.387 111.588 69.6988 112.025 70.2235 112.463C69.6988 113.512 68.9992 114.736 68.4745 115.698C67.9498 116.66 66.9878 116.748 66.1133 117.36C66.0258 118.234 66.0258 119.109 66.1133 119.634C65.7635 120.158 61.3035 124.531 61.3035 126.28C61.3035 126.979 61.8282 127.067 61.8282 127.767C61.8282 127.767 59.2046 132.401 58.0678 133.363C58.7674 136.249 56.3187 137.823 55.5317 140.447C55.007 140.534 54.1324 140.534 53.5203 141.147C54.1324 142.808 53.7826 144.732 53.1705 145.782C52.5583 146.918 50.7218 147.968 50.5469 149.192C50.4595 149.804 50.8967 150.591 50.6344 151.116C49.4975 153.652 48.2732 156.013 47.4861 158.637C46.9614 160.211 47.4861 162.397 46.7865 163.884C45.1249 167.557 44.3379 171.317 44.2504 174.466C44.2504 175.865 43.2885 178.051 43.2885 178.751C43.2885 179.45 43.8132 179.8 43.9881 179.975C46.1744 180.675 49.9348 182.861 50.6344 182.861C51.334 182.861 51.7712 182.336 52.296 181.986C52.3834 181.637 52.3834 181.199 52.6458 180.937C56.0564 181.199 55.8815 178.751 58.1552 178.751C58.8548 178.751 59.9917 179.275 60.6913 179.275C62.2654 179.275 65.4137 178.139 66.8129 177.701C68.7368 177.089 70.8357 176.914 72.6721 176.127C74.3337 175.428 78.3565 173.066 80.7177 171.842C81.6796 171.317 83.0789 170.705 83.7785 170.705H87.8887C88.5883 170.705 90.6871 167.732 92.0864 167.47C97.246 166.42 103.368 161.61 109.314 159.162C110.626 158.637 113.599 159.249 114.474 158.375C117.71 155.489 122.345 154.002 125.318 152.34C126.892 151.466 127.854 149.629 128.903 148.667C129.428 148.58 129.953 148.93 130.565 148.755C134.5 145.782 138.873 142.458 142.896 139.485C142.808 140.447 143.071 141.584 143.42 142.371C145.956 143.333 150.067 144.994 150.679 144.994C151.378 144.994 153.827 143.683 155.051 143.245C158.899 142.021 164.759 135.637 164.496 131.265C164.496 130.652 165.546 130.215 165.546 129.516C165.546 128.816 165.283 128.554 165.283 128.291C166.595 127.417 166.245 126.018 167.907 124.881C167.994 124.094 168.606 122.957 168.606 122.257C168.606 121.557 168.344 121.645 168.431 121.295C169.044 118.847 172.804 120.158 172.804 117.097C172.804 116.398 171.667 115.174 171.667 114.474C171.667 114.299 173.766 111.501 173.941 109.664C174.116 109.402 174.728 109.139 174.903 108.877C175.777 107.041 174.466 105.029 177.089 104.155C177.264 102.668 178.926 98.6452 180.15 98.6452C180.85 98.6452 180.675 98.9076 180.85 98.9076C180.85 99.6072 181.112 100.482 181.112 101.006C181.287 103.193 180.85 105.466 181.287 107.653C181.374 108.003 182.161 108.265 182.249 108.44C182.074 109.489 182.948 111.326 182.948 112.025C182.948 112.725 182.161 113.425 182.161 113.949C182.424 118.934 182.511 119.109 182.161 119.459C182.424 120.333 182.686 121.557 182.686 122.257C182.686 122.957 182.161 125.143 182.161 125.843C182.161 126.542 184.085 128.991 184.085 129.69C184.085 130.39 184.085 130.128 183.91 130.39C183.123 130.128 182.948 129.69 182.861 129.253L182.424 132.489C182.948 134.85 182.511 136.424 182.774 138.873C183.036 139.135 183.298 139.485 183.648 139.66C184.435 139.835 185.397 139.223 185.834 140.447C184.085 141.496 184.173 142.633 184.173 144.47C184.173 145.169 185.572 150.854 185.572 151.553C185.572 152.253 184.697 154.352 184.697 155.051C184.697 155.751 185.397 158.287 185.572 159.599C185.659 160.211 186.359 160.911 186.971 161.26C187.496 161.523 188.458 161.61 189.07 161.61C189.77 161.61 190.294 161.086 190.906 161.086C194.23 161.086 194.842 161.086 195.192 160.648C194.929 160.036 194.929 159.511 194.929 159.337C195.979 158.549 197.203 158.2 198.165 157.413C198.602 157.063 198.69 156.276 198.952 156.101C199.477 156.013 200.351 156.013 200.876 155.926C201.488 155.139 202.013 154.352 202.538 153.565C203.325 153.565 204.461 153.215 205.336 152.865V150.329C205.336 149.629 203.937 148.493 203.937 147.793C203.937 147.093 203.062 142.546 202.8 139.922C200.789 140.097 200.876 138.785 200.876 138.086C200.876 137.386 200.963 135.9 201.226 134.763C201.488 133.626 202.275 132.401 202.275 131.702C202.275 131.002 200.789 127.592 200.701 125.493C200.614 123.919 200.351 122.257 200.264 120.508C200.089 120.158 199.477 119.634 199.302 119.371C199.564 118.584 200.439 117.36 200.439 116.66C200.439 115.961 199.652 116.398 199.652 115.698C199.652 114.999 200.439 113.774 200.439 113.075C200.439 112.375 200.701 110.976 200.701 110.276C200.701 109.577 199.914 109.577 199.914 108.877C199.914 108.177 199.389 106.603 199.214 105.554C199.039 104.417 199.302 103.368 199.127 102.231C199.039 102.143 198.777 102.493 198.777 101.793C198.777 101.094 199.302 100.919 199.564 100.394H203.587C204.287 100.394 204.374 100.919 204.724 101.094C206.735 101.181 208.659 101.968 210.321 102.231C212.245 102.493 214.169 102.231 215.83 102.406C217.317 102.493 218.629 102.843 219.678 103.193C220.902 103.63 221.864 104.417 222.739 104.679C223.526 104.942 224.4 104.417 225.275 104.592C225.975 104.767 226.499 105.379 227.199 105.379C227.898 105.379 230.26 104.242 230.959 104.242C231.659 104.242 231.834 105.029 232.446 105.641H236.031C236.731 105.641 238.218 106.166 239.005 106.603C238.218 107.041 237.168 106.778 236.381 107.128C235.157 108.79 233.32 109.926 232.184 111.501C231.834 111.938 231.834 112.288 231.834 112.987C231.834 113.687 232.096 114.037 232.009 114.299C231.309 114.824 229.822 115.786 229.822 116.485C229.822 117.185 230.085 117.097 229.997 117.36C229.56 117.885 228.948 118.147 228.773 118.234C227.986 119.109 227.549 121.995 225.625 121.995V122.957C225.625 123.569 223.701 124.793 223.701 126.28C223.701 126.979 222.826 131.527 222.826 132.227C222.826 132.926 222.826 133.189 222.914 133.713C223.963 134.675 224.838 136.512 225.975 136.687C230.347 137.299 232.096 136.862 233.758 137.036C235.244 137.124 236.993 137.823 237.606 137.823C238.305 137.823 238.917 136.774 239.617 136.512C240.404 136.249 241.628 136.424 242.415 136.074C243.377 135.55 243.64 134.5 244.339 134.325C245.651 133.976 247.488 134.85 248.799 134.413C250.636 133.801 252.122 132.401 253.522 131.789C254.833 131.265 256.408 131.09 257.719 130.478C258.332 130.215 258.769 129.603 259.119 129.516C260.255 129.341 261.567 129.778 262.179 129.341C265.677 126.892 268.913 125.843 272.149 124.006C273.111 123.481 274.51 123.481 275.472 122.694C276.696 121.82 277.046 120.421 277.921 119.808C279.145 119.021 280.807 119.109 282.118 118.234C282.905 117.71 286.928 113.337 288.94 113.337C289.639 113.337 289.377 113.512 289.377 113.512C289.114 116.66 286.316 122.345 286.316 126.717C286.316 127.417 286.054 129.516 286.054 130.215C286.054 130.39 286.229 133.801 288.415 133.801C289.114 133.801 289.464 132.839 289.814 132.751C290.951 132.576 292.7 132.401 293.4 132.401C294.099 132.401 296.723 132.926 297.422 132.926C301.445 132.926 299.958 130.39 305.118 130.39C306.167 128.379 309.053 128.816 311.24 127.767C313.688 126.542 313.426 125.405 314.738 125.405C315.437 125.405 315.787 125.668 316.137 125.93C316.224 126.979 317.361 128.466 317.361 129.166C317.361 129.865 316.837 130.215 316.837 130.565C316.837 131.177 316.837 140.622 317.186 141.234C317.799 141.234 318.498 140.622 318.673 140.447L319.373 141.147V141.846C318.848 142.371 318.498 142.896 318.498 143.595C318.498 144.295 318.236 147.093 318.236 147.793C318.236 148.493 318.236 149.28 318.673 149.717C318.935 149.804 319.373 149.892 319.373 150.504C319.373 151.116 317.973 152.34 317.973 152.953C317.973 153.652 318.76 157.762 318.76 158.462C318.76 158.899 318.411 162.222 320.247 162.222C320.947 162.222 321.209 161.698 321.909 161.698C322.608 161.698 327.418 162.485 328.118 162.485C329.43 162.485 331.528 160.998 332.84 161.348C332.578 160.911 331.878 160.823 331.703 160.911V160.211L332.228 159.686H332.928C333.19 160.211 333.715 161.086 334.414 161.086C335.114 161.086 335.726 160.036 336.426 159.774C337.213 159.511 338.087 159.686 338.962 159.599C339.574 158.899 340.973 155.926 340.973 154.439C340.973 153.74 341.236 152.603 341.236 151.903C341.236 151.204 340.711 151.204 340.711 150.504C340.711 149.804 342.197 146.569 342.81 144.557C342.985 143.77 342.897 142.633 342.985 141.846C343.422 141.322 344.121 141.059 344.471 140.447C344.908 139.66 345.433 138.261 345.433 137.561C345.433 136.862 344.646 136.424 344.559 135.987C345.346 135.2 346.308 134.325 346.658 133.451C346.832 132.926 346.57 131.964 346.832 131.527C347.182 130.827 347.882 130.215 347.882 129.516C347.882 128.816 347.357 129.078 347.357 128.379V127.067C347.882 126.805 348.407 126.805 348.931 126.192C349.194 125.143 349.806 124.181 349.631 123.132C351.555 119.721 351.555 115.523 354.266 112.9C354.266 112.288 353.741 111.763 353.741 111.063C353.741 110.364 353.741 110.451 353.916 110.189C354.178 110.189 354.703 110.451 354.878 110.451C355.14 113.425 355.14 116.398 354.878 119.284C355.14 119.634 355.403 119.896 355.665 120.071C354.616 120.421 355.053 122.257 354.703 122.782C354.003 124.181 353.654 125.843 353.654 126.717C353.654 126.805 354.178 132.227 354.003 133.976C354.528 134.588 354.79 134.588 354.79 135.287C354.79 135.987 354.79 135.725 354.616 135.987C354.178 135.725 353.829 135.2 353.479 135.2C353.391 135.812 353.129 136.512 353.129 137.211C353.129 138.523 354.79 139.048 354.79 140.01C354.79 140.709 354.266 140.447 354.266 141.147C354.266 141.846 354.79 142.983 354.79 143.683C354.79 144.382 353.916 144.382 353.916 145.082C353.916 145.782 354.79 146.744 354.79 147.443C354.79 148.143 353.916 148.667 353.916 149.28C353.916 154.527 354.441 155.664 354.441 156.363C354.441 157.063 354.091 157.937 353.829 158.637C353.566 159.249 352.254 159.774 352.254 160.473C352.254 161.173 354.79 163.184 355.578 164.146C354.878 164.321 353.391 164.846 353.391 165.546C353.391 166.245 353.391 167.207 353.129 168.694C353.829 168.781 354.266 169.044 354.79 169.219C353.216 170.968 353.129 171.23 353.129 172.279C353.129 172.979 353.654 175.34 353.741 176.652C354.003 176.827 354.441 176.827 354.441 177.526C354.441 181.199 352.254 181.637 352.254 184.61C352.254 185.31 352.779 186.534 352.779 187.234C352.779 190.207 350.855 188.283 350.855 190.032C350.855 190.732 351.118 191.781 351.38 192.306C351.38 192.568 351.118 192.83 351.38 196.416C351.118 197.815 350.243 200.176 350.243 200.876C350.243 201.576 351.642 202.975 351.642 203.674C351.642 204.374 351.205 205.598 350.943 206.385C350.68 207.26 349.369 208.222 349.369 208.921C349.369 209.621 351.03 212.42 351.03 213.032C351.03 213.731 350.505 213.382 350.505 214.081V217.754C350.505 218.454 349.718 221.515 349.106 223.264C349.456 223.613 349.981 223.876 350.156 224.138C350.505 226.587 351.118 231.134 351.118 231.834C351.118 232.533 349.806 232.796 349.281 233.146C348.931 234.02 348.931 234.895 348.931 235.594C348.931 236.294 349.718 240.404 349.806 242.94C350.068 243.29 350.593 243.727 350.593 243.902C350.068 244.164 349.718 244.427 349.718 245.039C349.718 245.739 350.855 246.963 350.855 247.663C350.855 248.362 349.456 252.385 349.456 253.085C349.456 253.784 349.806 253.697 350.068 254.046C350.943 254.046 351.992 253.784 352.779 253.959C352.779 255.008 352.517 255.271 352.517 255.446C351.467 255.446 350.68 255.096 349.718 255.183C349.631 257.195 349.106 259.119 348.844 261.13C350.418 261.917 352.517 265.065 354.353 265.065C355.053 265.065 358.114 264.366 359.775 264.103C360.3 264.016 360.737 263.316 361.437 263.141C363.361 262.704 365.372 263.229 367.034 262.704C367.996 262.354 368.258 260.605 368.958 260.605C369.657 260.605 371.494 260.605 372.631 260.255C372.98 258.769 373.243 256.932 373.243 256.32C373.243 255.621 370.707 252.122 370.707 251.51C370.707 250.811 371.231 250.548 371.231 249.849C371.231 249.149 370.707 249.324 370.707 248.624C370.707 247.925 372.368 246.263 372.368 245.564C372.368 244.864 371.231 242.765 371.231 242.066C371.231 241.366 371.756 240.142 371.756 239.442C371.756 238.742 369.307 235.157 369.307 234.457C369.307 233.758 371.494 228.773 371.494 228.073C371.494 227.374 370.969 227.374 370.969 226.674C370.969 225.975 371.494 223.613 371.494 222.914C371.494 221.077 370.707 221.602 369.045 219.241L369.482 218.804C369.92 219.328 370.007 219.94 370.707 219.94C371.406 219.94 371.494 219.591 371.844 219.241C371.581 218.366 372.106 217.142 372.106 216.442C372.106 215.743 370.969 213.644 370.444 212.594C371.406 212.594 372.368 209.534 372.368 208.659C372.368 207.96 372.106 207.61 372.106 207.347C372.281 207.085 372.631 207.435 372.631 206.735C372.631 206.036 372.106 206.735 372.106 206.036C372.106 205.336 372.631 205.686 372.893 205.423V204.461C372.018 204.112 371.056 203.412 370.707 202.8C370.007 201.488 369.307 199.652 369.307 198.952C369.307 198.34 371.056 194.842 371.144 194.754C371.669 194.667 372.193 194.667 372.543 194.667C372.543 193.443 373.155 192.043 373.155 191.344C373.155 190.644 372.281 188.021 372.281 187.321C372.281 186.621 372.98 185.659 372.806 182.599C372.718 181.199 372.281 179.538 372.106 178.139C371.581 177.789 370.882 178.051 370.882 177.352C370.882 176.652 370.619 175.865 370.619 175.165C370.619 174.466 371.144 174.378 371.319 174.116C371.144 173.504 371.144 173.066 371.231 172.804C371.669 172.279 372.543 171.755 372.718 171.142C373.068 170.093 373.068 168.606 373.068 167.907C373.068 165.371 370.269 163.272 370.269 162.222C370.269 160.998 372.631 160.124 372.893 159.774C372.98 158.899 373.593 157.762 373.593 157.063C373.593 155.751 372.718 153.652 370.969 152.166C370.357 152.34 369.57 152.078 369.133 152.166C370.532 147.793 372.456 149.892 372.456 146.131V142.633C372.456 142.284 376.041 137.998 376.041 136.687C376.041 135.987 375.254 135.725 374.992 135.112C374.205 133.538 374.205 131.702 373.418 130.478C373.155 130.04 372.718 129.865 372.543 129.516C372.718 128.466 371.756 127.854 371.669 127.417C371.843 127.329 375.516 127.154 375.516 125.143C375.516 124.443 374.992 123.656 374.992 122.957C374.992 122.257 375.516 121.732 375.516 121.033C375.516 120.333 373.855 117.447 373.855 116.748C373.855 116.048 374.38 115.873 374.38 115.174V112.637C373.68 112.9 373.243 112.637 373.068 112.463C374.117 111.413 374.117 111.675 374.992 111.413V109.752C374.992 109.052 374.38 107.478 374.467 106.691C374.642 105.554 374.817 104.417 374.642 103.63C374.555 103.105 373.942 102.406 373.942 101.706C373.942 101.006 375.079 100.482 375.079 99.7821C375.079 99.0825 374.292 98.1205 374.205 97.246C374.03 94.4476 374.467 93.6605 374.467 89.9875C372.98 89.2005 373.068 88.5009 373.068 88.4134C373.068 86.5769 373.942 87.7138 375.254 85.4401C375.254 85.0903 374.992 84.8279 375.254 79.8432C374.555 79.3185 374.03 79.3185 373.593 78.5314C374.38 77.7443 375.779 76.8698 375.779 76.1702C375.779 75.4706 374.904 71.6227 374.904 70.9231C374.904 70.2235 375.429 70.2235 375.429 69.5239C375.429 69.4364 374.292 67.1627 374.292 66.2008C374.292 65.5011 374.292 64.1019 374.642 63.0525C375.342 61.6533 377.266 61.0411 377.266 59.2921ZM95.5844 99.6946C95.9342 99.2574 95.8468 98.2954 96.0217 97.7707C96.1091 97.4209 96.9837 97.246 97.246 96.6338C99.4323 92.1738 100.919 92.5236 100.919 89.2005C100.919 88.5009 101.444 88.326 101.531 88.0636C102.318 87.5389 104.242 87.5389 104.942 86.0522C105.554 84.7404 105.641 82.904 106.254 81.5922C106.516 80.8926 107.653 80.7177 108.003 80.193C109.314 78.3565 111.938 74.6835 111.675 72.4098C114.736 71.7102 113.337 68.0372 114.824 66.8129C115.523 66.4631 116.748 66.638 117.097 65.5011C117.447 64.4517 117.71 63.0525 118.059 61.9156C118.672 61.8282 119.546 62.0031 119.983 61.4784C121.47 59.8168 122.432 57.7179 123.919 55.4442C124.269 55.794 124.881 56.2313 124.881 56.9309C124.881 57.6305 124.531 60.6913 123.656 62.4403C123.394 62.965 122.519 63.6646 122.432 64.1894C120.945 71.0106 121.295 67.6 121.295 72.06C121.295 72.7596 119.808 74.9459 119.284 76.4326C119.021 77.2196 119.284 78.4439 119.021 79.4934C118.759 80.3679 117.797 81.0675 117.01 82.2918C116.136 83.5161 115.873 85.7899 115.873 86.4895C115.873 87.1891 116.66 87.364 117.01 87.9762C116.748 88.5883 116.048 89.4628 115.698 90.2499C115.611 90.5123 115.961 91.0369 115.786 91.6491C115.086 92.786 114.649 92.2613 113.862 92.2613C113.337 93.3107 112.812 94.7974 112.812 95.497C112.812 96.1966 113.337 96.7213 113.337 97.4209C113.337 98.1205 111.413 100.832 110.801 102.493C108.702 102.493 105.904 101.356 103.543 101.706C100.482 101.444 100.219 101.706 99.8695 101.706C99.5197 101.356 99.3448 101.181 98.6452 101.181C97.9456 101.181 97.7707 101.968 97.1585 101.968C96.4589 101.968 96.1966 101.181 95.497 101.181C94.7974 101.181 94.6225 101.444 94.0103 101.356C94.6225 100.744 95.3221 100.132 95.5844 99.6946ZM144.557 124.356C143.245 125.58 141.671 127.767 139.922 128.816C138.96 129.428 137.386 129.69 136.337 130.39C135.725 130.74 135.55 131.702 135.2 132.489C134.763 133.363 134.063 134.5 133.276 134.938C131.527 135.9 129.166 135.725 127.504 137.036C125.493 138.611 123.044 139.485 121.12 140.884C120.421 141.409 120.071 142.721 119.109 143.77C118.497 143.595 117.71 143.595 116.923 143.77C116.398 144.12 115.873 145.082 115.261 145.432C113.949 146.219 112.2 147.268 110.539 147.968C109.489 148.405 108.177 148.93 106.691 149.629C104.067 150.854 100.919 152.34 97.8582 153.827C96.284 154.527 94.0978 154.702 92.6111 155.664C89.7252 157.5 86.402 159.249 84.5655 160.998C82.5542 161.086 80.6302 161.96 78.7063 162.048C78.4439 162.222 77.9192 162.835 77.5694 163.009C76.52 163.009 75.0333 163.447 74.771 164.584C73.4592 165.021 71.7102 165.371 70.3984 165.633C69.2615 165.895 67.1627 167.47 66.4631 167.47C65.7635 167.47 65.3262 167.207 64.7141 167.12C64.7141 167.12 64.6266 166.857 64.1019 167.47V164.846C65.7635 161.698 66.5505 157.675 67.6874 154.352C68.5619 151.728 70.311 149.192 71.098 146.918C71.9725 144.47 72.06 144.645 72.06 143.245C72.06 142.546 75.9078 137.036 77.2196 133.888C77.5694 133.101 77.3071 131.877 77.6569 130.827C78.0941 129.516 79.9306 128.903 79.4934 127.242C82.2044 125.143 82.8165 124.793 82.8165 122.345C82.8165 121.033 85.7024 118.672 84.7404 115.611C85.615 114.999 86.402 114.212 87.0142 113.425C88.5883 113.337 91.2119 112.463 91.9115 112.463C92.6111 112.463 93.0483 113.25 93.7479 113.25C94.4476 113.25 94.535 112.812 95.1472 112.725C96.284 112.55 97.6833 112.9 98.995 112.812C99.2574 112.637 99.4323 112.113 100.132 112.113C100.832 112.113 101.269 113.075 101.793 113.162C103.193 113.337 105.641 114.124 106.341 114.124C107.041 114.124 107.215 113.599 107.828 113.25C108.44 113.512 109.052 114.124 109.052 114.736C109.052 115.436 107.39 117.272 107.39 117.885C107.39 118.584 107.915 119.546 107.915 120.246C107.915 120.945 106.516 121.645 106.516 122.345C106.516 123.044 107.041 122.869 107.041 123.569C107.041 124.181 106.516 122.782 106.428 126.105C105.816 126.455 105.117 126.28 104.767 126.717C104.067 127.592 104.067 129.078 103.892 130.215C103.805 130.74 103.455 131.614 103.018 132.489C102.843 132.751 102.581 132.839 102.231 133.101C101.968 133.363 102.231 133.713 102.231 134.413C102.231 136.162 100.219 136.599 99.1699 138.261C101.181 140.097 99.0825 142.109 101.269 143.858C102.056 143.945 103.368 144.207 103.98 144.207H108.352C109.139 143.158 110.014 141.496 111.063 140.622C111.501 140.272 112.55 140.447 113.25 139.922C118.759 135.725 122.432 130.04 123.219 124.094C123.569 121.558 125.668 119.546 127.329 117.71C127.679 117.272 128.641 117.36 129.341 117.36C130.04 117.36 134.151 117.622 134.85 117.622C135.55 117.622 136.249 117.885 136.862 117.972C137.474 118.497 137.736 119.284 138.436 119.284C139.135 119.284 140.097 118.759 140.972 118.497C141.934 120.858 144.382 119.546 144.382 122.257C144.994 122.869 144.732 123.569 144.557 124.356ZM147.88 95.0597C147.793 95.5844 146.831 96.284 146.656 96.9836C146.219 98.9076 145.782 101.968 145.782 102.668C145.782 103.368 146.306 104.767 146.306 105.466C146.306 106.166 146.044 107.041 145.694 107.653H143.945C143.333 107.041 142.808 106.516 142.021 106.079C141.759 105.991 141.147 106.428 140.622 106.166C139.135 105.554 137.911 105.466 136.512 105.029C136.424 104.767 136.074 104.592 136.074 103.892C136.074 102.318 139.835 99.0825 140.709 97.6833C141.759 95.9342 141.671 93.3107 142.546 91.6491C143.333 90.1624 145.257 89.3754 147.356 87.9762C147.705 89.4628 147.968 91.3868 147.968 92.0864C148.055 92.8734 148.055 94.2727 147.88 95.0597ZM265.59 115.436C264.89 115.698 264.541 116.835 263.841 117.185C261.217 118.497 258.244 120.158 255.096 121.383C252.472 122.432 247.4 123.481 246.701 123.394H243.902C243.552 123.044 243.552 123.219 243.552 122.607C243.552 121.907 244.339 121.383 244.602 120.77C245.126 119.284 246.088 115.873 247.313 114.736C248.624 113.425 249.499 111.938 249.761 110.626C249.936 110.101 250.548 109.139 251.161 108.702C252.297 108.615 253.959 108.352 254.659 108.352C255.358 108.352 263.141 111.151 263.841 111.151C264.541 111.151 264.541 110.626 265.24 110.626C265.94 110.626 266.727 111.501 267.339 111.501C268.476 111.588 270.312 110.976 271.624 112.375C270.4 114.124 267.339 114.736 265.59 115.436ZM295.236 99.6072C294.536 99.3448 294.012 99.3448 293.487 99.0825C292.525 99.8695 292.088 102.581 291.388 104.067C291.388 104.067 291.126 104.067 290.776 104.417C285.704 100.219 280.807 99.4323 275.822 99.0825C275.122 99.0825 274.423 98.0331 273.898 97.8582C272.236 97.4209 269.088 96.9836 268.388 96.9836H264.278C262.792 96.9836 261.305 96.459 261.305 95.0597C261.305 94.3601 262.179 93.4856 262.529 92.9609C265.503 92.0864 265.415 89.8126 268.039 89.8126C268.738 89.8126 271.012 90.8621 272.761 90.9495C275.822 91.1244 277.571 90.4248 278.27 90.4248C278.97 90.4248 280.632 91.2118 281.331 91.2118C282.031 91.2118 282.293 90.4248 282.993 90.4248C283.692 90.4248 283.692 90.9495 284.392 90.9495C285.092 90.9495 285.354 90.4248 286.054 90.4248C286.753 90.4248 289.114 91.4742 290.776 91.9989C292.35 92.5236 294.012 92.3487 295.848 92.1738C295.936 92.5236 296.198 92.5236 296.198 93.2232C296.198 95.1472 294.536 95.3221 295.236 99.6072ZM315.525 115.174C315.525 115.873 315.437 116.223 314.913 116.748C312.639 117.447 308.354 119.371 307.654 119.371C306.955 119.371 306.78 119.109 306.43 119.109C306.43 119.109 306.08 119.109 306.08 118.409C306.08 117.71 306.78 115.348 306.955 113.687C307.042 113.075 308.091 112.55 308.179 112.025C308.354 110.888 308.266 109.839 308.354 108.702C308.616 108.352 309.141 107.828 309.316 107.565C309.403 107.041 309.141 106.079 309.141 105.379C309.141 104.067 310.453 101.444 311.589 100.569C311.764 99.6946 312.639 97.7707 313.164 96.8962C313.513 96.8962 313.776 97.1586 314.213 97.246C313.776 98.4703 315.612 99.5198 315.612 100.657C315.612 101.356 315.088 101.619 315.088 102.318C315.088 103.018 315.962 103.455 315.962 104.155C315.962 104.854 314.563 108.964 314.563 109.664C314.475 110.276 315.525 114.474 315.525 115.174Z" fill="black"/>
<path d="M175.254 17.4028C177.09 17.4028 178.402 20.1138 178.402 20.9009C178.402 21.6005 177.79 23.6119 177.178 24.5739C176.653 25.2735 175.341 26.0605 174.641 26.0605C173.942 26.0605 174.029 25.7982 173.767 25.5358C172.98 25.4484 172.105 25.7107 171.231 25.6233C170.881 25.0986 169.744 24.399 169.744 23.6993C169.744 22.9997 170.356 22.7374 170.794 22.2127C170.881 21.688 170.619 21.1632 170.619 20.4636C170.706 18.015 173.767 17.4028 175.254 17.4028Z" fill="black"/>
<path d="M194.142 16.2661C194.841 16.2661 195.891 16.6159 196.678 16.8783C197.028 16.9657 199.564 20.2889 199.564 21.3383C199.564 22.0379 199.301 22.4752 199.126 23.0873C198.077 23.9618 196.94 25.3611 196.24 25.3611C195.541 25.3611 195.453 24.574 194.754 24.574C194.054 24.574 193.792 25.0987 193.092 25.0987C192.393 25.0987 191.431 24.4865 190.818 23.8744C190.294 23.3497 189.682 21.6881 189.682 20.9885C189.682 20.2889 189.944 19.5018 190.381 19.152C191.343 18.4524 192.48 17.403 193.18 16.6159C193.267 16.5285 193.442 16.2661 194.142 16.2661Z" fill="black"/>
</svg>
